<svg width="1902" height="1047" viewBox="0 0 1902 1047" fill="none" xmlns="http://www.w3.org/2000/svg">
<path d="M178.23 25L1660 0C2244 0 1586 316.988 1586 328C1586 341.765 1058.88 701.092 965.749 793.836C864.174 894.986 782.453 957.76 689.004 999.864C597.44 1041.12 512.092 1055.73 402.391 1041.97C297.206 1028.77 220.368 938.328 200.053 911.608C185.823 892.891 61.8672 649.911 24.6494 494.619C-14.3552 331.872 -3.41017 257.403 31.9624 184.508C67.7168 110.827 131.1 50.91 178.23 25Z" fill="#C4C4C4"/>
<path d="M178.23 25L1660 0C2244 0 1586 316.988 1586 328C1586 341.765 1058.88 701.092 965.749 793.836C864.174 894.986 782.453 957.76 689.004 999.864C597.44 1041.12 512.092 1055.73 402.391 1041.97C297.206 1028.77 220.368 938.328 200.053 911.608C185.823 892.891 61.8672 649.911 24.6494 494.619C-14.3552 331.872 -3.41017 257.403 31.9624 184.508C67.7168 110.827 131.1 50.91 178.23 25Z" fill="url(#paint0_linear_4_133)"/>
<defs>
<linearGradient id="paint0_linear_4_133" x1="828" y1="437.999" x2="271.383" y2="770.139" gradientUnits="userSpaceOnUse">
<stop offset="0.00566191" stop-color="#F98F41"/>
<stop offset="1" stop-color="#FFC709"/>
</linearGradient>
</defs>
</svg>
