<svg width="826" height="898" viewBox="0 0 826 898" fill="none" xmlns="http://www.w3.org/2000/svg">
<path d="M178.23 -124L1660 -149C2244 -149 1586 167.988 1586 179C1586 192.765 1058.88 552.092 965.749 644.836C864.174 745.986 782.453 808.76 689.004 850.864C597.44 892.119 512.092 906.732 402.391 892.968C297.206 879.77 220.368 789.328 200.053 762.608C185.823 743.891 61.8672 500.911 24.6494 345.619C-14.3552 182.872 -3.41017 108.403 31.9624 35.5085C67.7168 -38.1731 131.1 -98.09 178.23 -124Z" fill="#C4C4C4"/>
<path d="M178.23 -124L1660 -149C2244 -149 1586 167.988 1586 179C1586 192.765 1058.88 552.092 965.749 644.836C864.174 745.986 782.453 808.76 689.004 850.864C597.44 892.119 512.092 906.732 402.391 892.968C297.206 879.77 220.368 789.328 200.053 762.608C185.823 743.891 61.8672 500.911 24.6494 345.619C-14.3552 182.872 -3.41017 108.403 31.9624 35.5085C67.7168 -38.1731 131.1 -98.09 178.23 -124Z" fill="url(#paint0_linear_4_133)"/>
<defs>
<linearGradient id="paint0_linear_4_133" x1="828" y1="288.999" x2="271.383" y2="621.139" gradientUnits="userSpaceOnUse">
<stop offset="0.00566191" stop-color="#F98F41"/>
<stop offset="1" stop-color="#FFC709"/>
</linearGradient>
</defs>
</svg>
