<svg width="1491" height="1022" viewBox="0 0 1491 1022" fill="none" xmlns="http://www.w3.org/2000/svg">
<path d="M178.231 0H1437.5C1620 168 1277 526.5 1277 526.5C1277 526.5 1218.13 588.256 1125 681C1023.42 782.149 782.453 932.76 689.005 974.864C597.44 1016.12 512.092 1030.73 402.391 1016.97C297.206 1003.77 220.369 913.328 200.054 886.608C185.824 867.891 61.8674 624.911 24.6496 469.619C-14.355 306.872 -3.40992 232.403 31.9627 159.508C67.717 85.8269 131.1 25.91 178.231 0Z" fill="#C4C4C4"/>
<path d="M178.231 0H1437.5C1620 168 1277 526.5 1277 526.5C1277 526.5 1218.13 588.256 1125 681C1023.42 782.149 782.453 932.76 689.005 974.864C597.44 1016.12 512.092 1030.73 402.391 1016.97C297.206 1003.77 220.369 913.328 200.054 886.608C185.824 867.891 61.8674 624.911 24.6496 469.619C-14.355 306.872 -3.40992 232.403 31.9627 159.508C67.717 85.8269 131.1 25.91 178.231 0Z" fill="url(#paint0_linear_4_133)"/>
<defs>
<linearGradient id="paint0_linear_4_133" x1="828" y1="413" x2="271.383" y2="745.139" gradientUnits="userSpaceOnUse">
<stop offset="0.00566191" stop-color="#F98F41"/>
<stop offset="1" stop-color="#FFC709"/>
</linearGradient>
</defs>
</svg>
